<svg width="47" height="47" viewBox="0 0 47 47" fill="none" xmlns="http://www.w3.org/2000/svg">
<path d="M32.4886 3.92647H14.5306C11.7156 3.92647 9.01583 5.04477 7.02529 7.03531C5.03474 9.02585 3.9165 11.7256 3.9165 14.5407V32.5769C3.91893 34.7918 4.61545 36.9502 5.90813 38.7487C7.2008 40.5472 9.02459 41.8953 11.1232 42.6036H11.3777H11.5344C12.5038 42.9101 13.5139 43.0685 14.5306 43.0735H32.4886C33.518 43.0671 34.5408 42.9088 35.524 42.6036H35.6219H35.8765C37.9767 41.8979 39.8022 40.5504 41.0953 38.7513C42.3883 36.9522 43.0837 34.7925 43.0832 32.5769V14.619C43.0935 13.2201 42.8272 11.8331 42.2997 10.5376C41.7721 9.24203 40.9936 8.06352 40.0091 7.06985C39.0245 6.07618 37.8532 5.28696 36.5626 4.7475C35.272 4.20804 33.8874 3.92901 32.4886 3.92647ZM23.4998 11.0352C25.0724 11.0352 26.6096 11.5015 27.9171 12.3752C29.2246 13.2488 30.2437 14.4906 30.8454 15.9434C31.4472 17.3963 31.6047 18.9949 31.2979 20.5372C30.9911 22.0795 30.2339 23.4962 29.1219 24.6081C28.01 25.7201 26.5933 26.4773 25.0509 26.7841C23.5086 27.0909 21.91 26.9334 20.4572 26.3317C19.0043 25.7299 17.7626 24.7108 16.889 23.4033C16.0153 22.0958 15.549 20.5586 15.549 18.9861C15.549 16.8774 16.3867 14.855 17.8778 13.364C19.3688 11.8729 21.3911 11.0352 23.4998 11.0352ZM33.5069 40.0185C33.1681 40.048 32.8274 40.048 32.4886 40.0185H14.5306C14.1853 40.0484 13.8381 40.0484 13.4927 40.0185C12.5131 39.8904 11.5683 39.5711 10.7119 39.0786C11.6322 36.4196 13.3584 34.1135 15.6504 32.4814C17.9424 30.8492 20.6861 29.9722 23.4998 29.9722C26.3136 29.9722 29.0573 30.8492 31.3493 32.4814C33.6413 34.1135 35.3675 36.4196 36.2878 39.0786C35.428 39.6051 34.4673 39.9453 33.4677 40.0773L33.5069 40.0185Z" fill="white"/>
</svg>
