<svg width="46" height="46" viewBox="0 0 46 46" fill="none" xmlns="http://www.w3.org/2000/svg">
<path d="M31.7974 3.83334H14.2215C12.8573 3.83334 11.5065 4.10203 10.2462 4.6241C8.9858 5.14616 7.84051 5.91137 6.87586 6.87601C5.91122 7.84066 5.14598 8.98586 4.62392 10.2462C4.10186 11.5066 3.83334 12.8575 3.83334 14.2217V31.7975C3.83842 34.5493 4.93501 37.1867 6.88265 39.1308C8.83029 41.0748 11.4697 42.1667 14.2215 42.1667H31.7974C34.546 42.1616 37.1804 41.0675 39.1239 39.124C41.0674 37.1805 42.1616 34.546 42.1667 31.7975V14.2217C42.1667 11.4698 41.0748 8.83041 39.1307 6.88277C37.1867 4.93513 34.5493 3.83842 31.7974 3.83334ZM28.7881 24.4567C28.5903 24.9499 28.2973 25.3993 27.9257 25.7792L20.8725 32.8325C20.6944 33.0122 20.4823 33.1547 20.2488 33.2521C20.0152 33.3494 19.7646 33.3995 19.5115 33.3995C19.2585 33.3995 19.0081 33.3494 18.7745 33.2521C18.541 33.1547 18.329 33.0122 18.1508 32.8325C17.9711 32.6543 17.8286 32.4424 17.7313 32.2088C17.634 31.9752 17.5839 31.7247 17.5839 31.4717C17.5839 31.2187 17.634 30.9681 17.7313 30.7346C17.8286 30.501 17.9711 30.289 18.1508 30.1108L25.204 23.0575V22.8467L18.1124 15.9275C17.9312 15.7513 17.7864 15.5412 17.6864 15.309C17.5864 15.0769 17.5332 14.8273 17.5296 14.5746C17.526 14.3219 17.5723 14.0709 17.6658 13.8361C17.7592 13.6012 17.8979 13.3871 18.074 13.2058C18.2502 13.0246 18.4605 12.8799 18.6927 12.7799C18.9248 12.6799 19.1744 12.6266 19.4271 12.623C19.6798 12.6194 19.9306 12.6657 20.1655 12.7591C20.4003 12.8525 20.6146 12.9913 20.7958 13.1675L27.849 20.0483C28.2244 20.429 28.5238 20.8779 28.7308 21.3708C28.9373 21.8622 29.0415 22.3904 29.0373 22.9233C29.0598 23.4461 28.975 23.9679 28.7881 24.4567Z" fill="white"/>
</svg>
