<svg width="54" height="42" viewBox="0 0 54 42" fill="none" xmlns="http://www.w3.org/2000/svg">
<path d="M2.40767 9.07812V14H1.15057V5.81818H2.36506V7.09659H2.47159C2.66335 6.68111 2.95455 6.3473 3.34517 6.09517C3.7358 5.83949 4.24006 5.71165 4.85795 5.71165C5.41193 5.71165 5.89666 5.82528 6.31215 6.05256C6.72763 6.27628 7.05078 6.61719 7.28161 7.07528C7.51243 7.52983 7.62784 8.10511 7.62784 8.80114V14H6.37074V8.88636C6.37074 8.24361 6.20384 7.7429 5.87003 7.38423C5.53622 7.02202 5.07813 6.84091 4.49574 6.84091C4.09446 6.84091 3.7358 6.92791 3.41974 7.10192C3.10724 7.27592 2.86044 7.52983 2.67933 7.86364C2.49822 8.19744 2.40767 8.60227 2.40767 9.07812ZM9.92498 14V5.81818H11.1821V14H9.92498ZM10.5642 4.45455C10.3192 4.45455 10.1079 4.37109 9.93031 4.20419C9.7563 4.03729 9.6693 3.83665 9.6693 3.60227C9.6693 3.3679 9.7563 3.16726 9.93031 3.00035C10.1079 2.83345 10.3192 2.75 10.5642 2.75C10.8092 2.75 11.0187 2.83345 11.1927 3.00035C11.3703 3.16726 11.4591 3.3679 11.4591 3.60227C11.4591 3.83665 11.3703 4.03729 11.1927 4.20419C11.0187 4.37109 10.8092 4.45455 10.5642 4.45455ZM16.8084 14.1705C16.0414 14.1705 15.3809 13.9893 14.8269 13.6271C14.2729 13.2649 13.8468 12.766 13.5485 12.1303C13.2502 11.4947 13.101 10.7685 13.101 9.9517C13.101 9.12074 13.2537 8.38743 13.5591 7.75178C13.8681 7.11257 14.2978 6.61364 14.8482 6.25497C15.4022 5.89276 16.0485 5.71165 16.7871 5.71165C17.3624 5.71165 17.8809 5.81818 18.3425 6.03125C18.8042 6.24432 19.1824 6.54261 19.4771 6.92614C19.7718 7.30966 19.9547 7.7571 20.0257 8.26847H18.7686C18.6728 7.8956 18.4597 7.56534 18.1294 7.2777C17.8027 6.98651 17.3624 6.84091 16.8084 6.84091C16.3184 6.84091 15.8887 6.96875 15.5194 7.22443C15.1536 7.47656 14.8677 7.83345 14.6618 8.2951C14.4593 8.7532 14.3581 9.29119 14.3581 9.90909C14.3581 10.5412 14.4576 11.0916 14.6564 11.5604C14.8588 12.0291 15.1429 12.3931 15.5087 12.6523C15.878 12.9116 16.3113 13.0412 16.8084 13.0412C17.1351 13.0412 17.4316 12.9844 17.698 12.8707C17.9643 12.7571 18.1898 12.5938 18.3745 12.3807C18.5591 12.1676 18.6905 11.9119 18.7686 11.6136H20.0257C19.9547 12.0966 19.7789 12.5316 19.4984 12.9187C19.2214 13.3022 18.8539 13.6076 18.3958 13.8349C17.9412 14.0586 17.4121 14.1705 16.8084 14.1705ZM25.1873 14.1705C24.4487 14.1705 23.8006 13.9947 23.2431 13.6431C22.6891 13.2915 22.2559 12.7997 21.9434 12.1676C21.6344 11.5355 21.4799 10.7969 21.4799 9.9517C21.4799 9.09943 21.6344 8.35547 21.9434 7.71982C22.2559 7.08416 22.6891 6.59055 23.2431 6.23899C23.8006 5.88743 24.4487 5.71165 25.1873 5.71165C25.926 5.71165 26.5723 5.88743 27.1262 6.23899C27.6838 6.59055 28.117 7.08416 28.426 7.71982C28.7385 8.35547 28.8947 9.09943 28.8947 9.9517C28.8947 10.7969 28.7385 11.5355 28.426 12.1676C28.117 12.7997 27.6838 13.2915 27.1262 13.6431C26.5723 13.9947 25.926 14.1705 25.1873 14.1705ZM25.1873 13.0412C25.7484 13.0412 26.21 12.8974 26.5723 12.6097C26.9345 12.3221 27.2026 11.9439 27.3766 11.4751C27.5506 11.0064 27.6376 10.4986 27.6376 9.9517C27.6376 9.40483 27.5506 8.89524 27.3766 8.42294C27.2026 7.95064 26.9345 7.56889 26.5723 7.2777C26.21 6.98651 25.7484 6.84091 25.1873 6.84091C24.6262 6.84091 24.1646 6.98651 23.8024 7.2777C23.4402 7.56889 23.1721 7.95064 22.998 8.42294C22.824 8.89524 22.737 9.40483 22.737 9.9517C22.737 10.4986 22.824 11.0064 22.998 11.4751C23.1721 11.9439 23.4402 12.3221 23.8024 12.6097C24.1646 12.8974 24.6262 13.0412 25.1873 13.0412ZM32.0708 3.09091V14H30.8137V3.09091H32.0708ZM35.6303 3.09091V14H34.3732V3.09091H35.6303ZM40.3405 14.1918C39.822 14.1918 39.3515 14.0941 38.9289 13.8988C38.5063 13.6999 38.1707 13.4141 37.9221 13.0412C37.6736 12.6648 37.5493 12.2102 37.5493 11.6776C37.5493 11.2088 37.6416 10.8288 37.8263 10.5376C38.0109 10.2429 38.2577 10.0121 38.5667 9.84517C38.8756 9.67827 39.2165 9.55398 39.5894 9.4723C39.9658 9.38707 40.344 9.3196 40.724 9.26989C41.2211 9.20597 41.6242 9.15803 41.9332 9.12607C42.2457 9.09055 42.4729 9.03196 42.615 8.95028C42.7606 8.86861 42.8334 8.72656 42.8334 8.52415V8.48153C42.8334 7.95597 42.6895 7.54759 42.4019 7.25639C42.1178 6.9652 41.6863 6.8196 41.1075 6.8196C40.5074 6.8196 40.0368 6.95099 39.6959 7.21378C39.355 7.47656 39.1153 7.7571 38.9768 8.0554L37.7836 7.62926C37.9967 7.1321 38.2808 6.74503 38.6359 6.46804C38.9946 6.1875 39.3852 5.99219 39.8078 5.8821C40.2339 5.76847 40.653 5.71165 41.0649 5.71165C41.3277 5.71165 41.6295 5.74361 41.9704 5.80753C42.3149 5.8679 42.6469 5.99396 42.9665 6.18572C43.2897 6.37749 43.5578 6.6669 43.7709 7.05398C43.9839 7.44105 44.0905 7.95952 44.0905 8.60938V14H42.8334V12.892H42.7694C42.6842 13.0696 42.5422 13.2596 42.3433 13.462C42.1444 13.6644 41.8799 13.8366 41.5496 13.9787C41.2194 14.1207 40.8163 14.1918 40.3405 14.1918ZM40.5322 13.0625C41.0294 13.0625 41.4484 12.9648 41.7893 12.7695C42.1338 12.5742 42.393 12.3221 42.567 12.0131C42.7446 11.7042 42.8334 11.3793 42.8334 11.0384V9.88778C42.7801 9.9517 42.6629 10.0103 42.4818 10.0636C42.3042 10.1133 42.0983 10.1577 41.8639 10.1967C41.6331 10.2322 41.4076 10.2642 41.1874 10.2926C40.9708 10.3175 40.795 10.3388 40.6601 10.3565C40.3334 10.3991 40.028 10.4684 39.7439 10.5643C39.4633 10.6566 39.2361 10.7969 39.0621 10.9851C38.8916 11.1697 38.8064 11.4219 38.8064 11.7415C38.8064 12.1783 38.968 12.5085 39.2911 12.7322C39.6178 12.9524 40.0315 13.0625 40.5322 13.0625ZM52.1804 7.65057L51.0511 7.97017C50.9801 7.78196 50.8754 7.59908 50.7369 7.42152C50.6019 7.24041 50.4173 7.09126 50.1829 6.97408C49.9485 6.85689 49.6484 6.7983 49.2827 6.7983C48.782 6.7983 48.3647 6.91371 48.0309 7.14453C47.7006 7.3718 47.5355 7.66122 47.5355 8.01278C47.5355 8.32528 47.6491 8.57209 47.8764 8.7532C48.1037 8.9343 48.4588 9.08523 48.9418 9.20597L50.1562 9.50426C50.8878 9.68182 51.4329 9.95348 51.7915 10.3192C52.1502 10.6815 52.3295 11.1484 52.3295 11.7202C52.3295 12.1889 52.1946 12.608 51.9247 12.9773C51.6584 13.3466 51.2855 13.6378 50.8061 13.8509C50.3267 14.0639 49.7692 14.1705 49.1335 14.1705C48.299 14.1705 47.6083 13.9893 47.0614 13.6271C46.5146 13.2649 46.1683 12.7358 46.0227 12.0398L47.2159 11.7415C47.3295 12.1818 47.5444 12.5121 47.8604 12.7322C48.18 12.9524 48.5973 13.0625 49.1122 13.0625C49.6982 13.0625 50.1634 12.9382 50.5078 12.6896C50.8558 12.4375 51.0298 12.1357 51.0298 11.7841C51.0298 11.5 50.9304 11.2621 50.7315 11.0703C50.5327 10.875 50.2273 10.7294 49.8153 10.6335L48.4517 10.3139C47.7024 10.1364 47.152 9.86115 46.8004 9.48828C46.4524 9.11186 46.2784 8.64134 46.2784 8.0767C46.2784 7.61506 46.408 7.20668 46.6673 6.85156C46.93 6.49645 47.2869 6.21768 47.7379 6.01527C48.1925 5.81286 48.7074 5.71165 49.2827 5.71165C50.0923 5.71165 50.728 5.8892 51.1896 6.24432C51.6548 6.59943 51.9851 7.06818 52.1804 7.65057Z" fill="white"/>
<path d="M36.5582 26.1918C36.0398 26.1918 35.5692 26.0941 35.1467 25.8988C34.7241 25.6999 34.3885 25.4141 34.1399 25.0412C33.8913 24.6648 33.767 24.2102 33.767 23.6776C33.767 23.2088 33.8594 22.8288 34.044 22.5376C34.2287 22.2429 34.4755 22.0121 34.7844 21.8452C35.0934 21.6783 35.4343 21.554 35.8072 21.4723C36.1836 21.3871 36.5618 21.3196 36.9418 21.2699C37.4389 21.206 37.842 21.158 38.1509 21.1261C38.4634 21.0906 38.6907 21.032 38.8327 20.9503C38.9783 20.8686 39.0511 20.7266 39.0511 20.5241V20.4815C39.0511 19.956 38.9073 19.5476 38.6197 19.2564C38.3356 18.9652 37.9041 18.8196 37.3253 18.8196C36.7251 18.8196 36.2546 18.951 35.9137 19.2138C35.5728 19.4766 35.3331 19.7571 35.1946 20.0554L34.0014 19.6293C34.2145 19.1321 34.4986 18.745 34.8537 18.468C35.2124 18.1875 35.603 17.9922 36.0256 17.8821C36.4517 17.7685 36.8707 17.7116 37.2827 17.7116C37.5455 17.7116 37.8473 17.7436 38.1882 17.8075C38.5327 17.8679 38.8647 17.994 39.1843 18.1857C39.5075 18.3775 39.7756 18.6669 39.9886 19.054C40.2017 19.4411 40.3082 19.9595 40.3082 20.6094V26H39.0511V24.892H38.9872C38.902 25.0696 38.7599 25.2596 38.5611 25.462C38.3622 25.6644 38.0977 25.8366 37.7674 25.9787C37.4371 26.1207 37.0341 26.1918 36.5582 26.1918ZM36.75 25.0625C37.2472 25.0625 37.6662 24.9648 38.0071 24.7695C38.3516 24.5742 38.6108 24.3221 38.7848 24.0131C38.9624 23.7042 39.0511 23.3793 39.0511 23.0384V21.8878C38.9979 21.9517 38.8807 22.0103 38.6996 22.0636C38.522 22.1133 38.3161 22.1577 38.0817 22.1967C37.8509 22.2322 37.6254 22.2642 37.4052 22.2926C37.1886 22.3175 37.0128 22.3388 36.8778 22.3565C36.5511 22.3991 36.2457 22.4684 35.9616 22.5643C35.6811 22.6566 35.4538 22.7969 35.2798 22.9851C35.1094 23.1697 35.0241 23.4219 35.0241 23.7415C35.0241 24.1783 35.1857 24.5085 35.5089 24.7322C35.8356 24.9524 36.2493 25.0625 36.75 25.0625ZM42.6027 26V17.8182H43.8172V19.054H43.9024C44.0516 18.6491 44.3215 18.3207 44.7121 18.0685C45.1027 17.8164 45.5431 17.6903 46.0331 17.6903C46.1254 17.6903 46.2409 17.6921 46.3794 17.6957C46.5178 17.6992 46.6226 17.7045 46.6936 17.7116V18.9901C46.651 18.9794 46.5534 18.9634 46.4007 18.9421C46.2515 18.9173 46.0935 18.9048 45.9266 18.9048C45.5289 18.9048 45.1737 18.9883 44.8612 19.1552C44.5523 19.3185 44.3073 19.5458 44.1262 19.837C43.9486 20.1246 43.8598 20.4531 43.8598 20.8224V26H42.6027ZM52.2547 17.8182V18.8835H48.0146V17.8182H52.2547ZM49.2504 15.858H50.5075V23.6562C50.5075 24.0114 50.559 24.2777 50.662 24.4553C50.7686 24.6293 50.9035 24.7464 51.0669 24.8068C51.2338 24.8636 51.4095 24.892 51.5942 24.892C51.7327 24.892 51.8463 24.8849 51.9351 24.8707C52.0239 24.853 52.0949 24.8388 52.1482 24.8281L52.4039 25.9574C52.3186 25.9893 52.1997 26.0213 52.047 26.0533C51.8943 26.0888 51.7007 26.1065 51.4664 26.1065C51.1112 26.1065 50.7632 26.0302 50.4223 25.8775C50.085 25.7248 49.8044 25.4922 49.5807 25.1797C49.3605 24.8672 49.2504 24.473 49.2504 23.9972V15.858Z" fill="white"/>
<path d="M9.24006 38.1705C8.55824 38.1705 7.95632 37.9982 7.4343 37.6538C6.91229 37.3058 6.50391 36.8157 6.20916 36.1836C5.91442 35.5479 5.76705 34.7969 5.76705 33.9304C5.76705 33.071 5.91442 32.3253 6.20916 31.6932C6.50391 31.0611 6.91406 30.5728 7.43963 30.2283C7.9652 29.8839 8.57244 29.7116 9.26136 29.7116C9.79403 29.7116 10.2148 29.8004 10.5238 29.978C10.8363 30.152 11.0742 30.3509 11.2376 30.5746C11.4045 30.7947 11.5341 30.9759 11.6264 31.1179H11.733V27.0909H12.9901V38H11.7756V36.7429H11.6264C11.5341 36.892 11.4027 37.0803 11.2322 37.3075C11.0618 37.5312 10.8185 37.7319 10.5025 37.9094C10.1864 38.0835 9.76563 38.1705 9.24006 38.1705ZM9.41051 37.0412C9.91477 37.0412 10.3409 36.9098 10.6889 36.647C11.0369 36.3807 11.3015 36.0131 11.4826 35.5444C11.6637 35.0721 11.7543 34.527 11.7543 33.9091C11.7543 33.2983 11.6655 32.7638 11.4879 32.3058C11.3104 31.8441 11.0476 31.4854 10.6996 31.2298C10.3516 30.9705 9.92188 30.8409 9.41051 30.8409C8.87784 30.8409 8.43395 30.9776 8.07884 31.2511C7.72727 31.521 7.46271 31.8885 7.28516 32.3537C7.11115 32.8153 7.02415 33.3338 7.02415 33.9091C7.02415 34.4915 7.11293 35.0206 7.29048 35.4964C7.47159 35.9687 7.73793 36.3452 8.08949 36.6257C8.4446 36.9027 8.88494 37.0412 9.41051 37.0412ZM18.8974 38.1705C18.109 38.1705 17.429 37.9964 16.8572 37.6484C16.2891 37.2969 15.8505 36.8068 15.5415 36.1783C15.2362 35.5462 15.0835 34.8111 15.0835 33.973C15.0835 33.1349 15.2362 32.3963 15.5415 31.7571C15.8505 31.1143 16.2802 30.6136 16.8306 30.255C17.3846 29.8928 18.0309 29.7116 18.7695 29.7116C19.1957 29.7116 19.6165 29.7827 20.032 29.9247C20.4474 30.0668 20.8256 30.2976 21.1665 30.6172C21.5075 30.9332 21.7791 31.3523 21.9815 31.8743C22.1839 32.3963 22.2852 33.0391 22.2852 33.8026V34.3352H15.9783V33.2486H21.0067C21.0067 32.7869 20.9144 32.375 20.7298 32.0128C20.5487 31.6506 20.2894 31.3647 19.9521 31.1552C19.6183 30.9457 19.2241 30.8409 18.7695 30.8409C18.2688 30.8409 17.8356 30.9652 17.4698 31.2138C17.1076 31.4588 16.8288 31.7784 16.6335 32.1726C16.4382 32.5668 16.3406 32.9893 16.3406 33.4403V34.1648C16.3406 34.7827 16.4471 35.3065 16.6602 35.7362C16.8768 36.1623 17.1768 36.4872 17.5604 36.7109C17.9439 36.9311 18.3896 37.0412 18.8974 37.0412C19.2276 37.0412 19.5259 36.995 19.7923 36.9027C20.0621 36.8068 20.2947 36.6648 20.4901 36.4766C20.6854 36.2848 20.8363 36.0469 20.9428 35.7628L22.1573 36.1037C22.0295 36.5156 21.8146 36.8778 21.5128 37.1903C21.2109 37.4993 20.8381 37.7408 20.3942 37.9148C19.9503 38.0852 19.4513 38.1705 18.8974 38.1705ZM29.9929 31.6506L28.8636 31.9702C28.7926 31.782 28.6879 31.5991 28.5494 31.4215C28.4144 31.2404 28.2298 31.0913 27.9954 30.9741C27.761 30.8569 27.4609 30.7983 27.0952 30.7983C26.5945 30.7983 26.1772 30.9137 25.8434 31.1445C25.5131 31.3718 25.348 31.6612 25.348 32.0128C25.348 32.3253 25.4616 32.5721 25.6889 32.7532C25.9162 32.9343 26.2713 33.0852 26.7543 33.206L27.9688 33.5043C28.7003 33.6818 29.2454 33.9535 29.604 34.3192C29.9627 34.6815 30.142 35.1484 30.142 35.7202C30.142 36.1889 30.0071 36.608 29.7372 36.9773C29.4709 37.3466 29.098 37.6378 28.6186 37.8509C28.1392 38.0639 27.5817 38.1705 26.946 38.1705C26.1115 38.1705 25.4208 37.9893 24.8739 37.6271C24.3271 37.2649 23.9808 36.7358 23.8352 36.0398L25.0284 35.7415C25.142 36.1818 25.3569 36.5121 25.6729 36.7322C25.9925 36.9524 26.4098 37.0625 26.9247 37.0625C27.5107 37.0625 27.9759 36.9382 28.3203 36.6896C28.6683 36.4375 28.8423 36.1357 28.8423 35.7841C28.8423 35.5 28.7429 35.2621 28.544 35.0703C28.3452 34.875 28.0398 34.7294 27.6278 34.6335L26.2642 34.3139C25.5149 34.1364 24.9645 33.8612 24.6129 33.4883C24.2649 33.1119 24.0909 32.6413 24.0909 32.0767C24.0909 31.6151 24.2205 31.2067 24.4798 30.8516C24.7425 30.4964 25.0994 30.2177 25.5504 30.0153C26.005 29.8129 26.5199 29.7116 27.0952 29.7116C27.9048 29.7116 28.5405 29.8892 29.0021 30.2443C29.4673 30.5994 29.7976 31.0682 29.9929 31.6506ZM32.0344 38V29.8182H33.2915V38H32.0344ZM32.6736 28.4545C32.4285 28.4545 32.2172 28.3711 32.0397 28.2042C31.8657 28.0373 31.7787 27.8366 31.7787 27.6023C31.7787 27.3679 31.8657 27.1673 32.0397 27.0004C32.2172 26.8335 32.4285 26.75 32.6736 26.75C32.9186 26.75 33.1281 26.8335 33.3021 27.0004C33.4797 27.1673 33.5684 27.3679 33.5684 27.6023C33.5684 27.8366 33.4797 28.0373 33.3021 28.2042C33.1281 28.3711 32.9186 28.4545 32.6736 28.4545ZM38.8965 41.2386C38.2892 41.2386 37.7672 41.1605 37.3304 41.0043C36.8936 40.8516 36.5297 40.6491 36.2385 40.397C35.9508 40.1484 35.7218 39.8821 35.5513 39.598L36.5527 38.8949C36.6664 39.044 36.8102 39.2145 36.9842 39.4062C37.1582 39.6016 37.3961 39.7702 37.698 39.9123C38.0034 40.0579 38.4029 40.1307 38.8965 40.1307C39.557 40.1307 40.1021 39.9709 40.5318 39.6513C40.9615 39.3317 41.1763 38.831 41.1763 38.1491V36.4872H41.0698C40.9775 36.6364 40.8461 36.821 40.6756 37.0412C40.5087 37.2578 40.2672 37.4513 39.9512 37.6218C39.6387 37.7887 39.2161 37.8722 38.6834 37.8722C38.0229 37.8722 37.4299 37.7159 36.9043 37.4034C36.3823 37.0909 35.9686 36.6364 35.6632 36.0398C35.3613 35.4432 35.2104 34.7187 35.2104 33.8665C35.2104 33.0284 35.3578 32.2987 35.6525 31.6772C35.9473 31.0522 36.3574 30.5692 36.883 30.2283C37.4086 29.8839 38.0158 29.7116 38.7047 29.7116C39.2374 29.7116 39.66 29.8004 39.9725 29.978C40.2885 30.152 40.53 30.3509 40.6969 30.5746C40.8674 30.7947 40.9988 30.9759 41.0911 31.1179H41.2189V29.8182H42.4334V38.2344C42.4334 38.9375 42.2736 39.5092 41.954 39.9496C41.638 40.3935 41.2118 40.7184 40.6756 40.9244C40.1429 41.1339 39.5499 41.2386 38.8965 41.2386ZM38.8539 36.7429C39.3581 36.7429 39.7843 36.6275 40.1323 36.3967C40.4803 36.1658 40.7449 35.8338 40.926 35.4006C41.1071 34.9673 41.1976 34.4489 41.1976 33.8452C41.1976 33.2557 41.1088 32.7354 40.9313 32.2844C40.7537 31.8335 40.4909 31.4801 40.1429 31.2244C39.7949 30.9687 39.3652 30.8409 38.8539 30.8409C38.3212 30.8409 37.8773 30.9759 37.5222 31.2457C37.1706 31.5156 36.9061 31.8778 36.7285 32.3324C36.5545 32.7869 36.4675 33.2912 36.4675 33.8452C36.4675 34.4134 36.5563 34.9158 36.7338 35.3526C36.915 35.7859 37.1813 36.1268 37.5328 36.3754C37.888 36.6204 38.3283 36.7429 38.8539 36.7429ZM45.9917 33.0781V38H44.7346V29.8182H45.949V31.0966H46.0556C46.2473 30.6811 46.5385 30.3473 46.9292 30.0952C47.3198 29.8395 47.824 29.7116 48.4419 29.7116C48.9959 29.7116 49.4806 29.8253 49.8961 30.0526C50.3116 30.2763 50.6348 30.6172 50.8656 31.0753C51.0964 31.5298 51.2118 32.1051 51.2118 32.8011V38H49.9547V32.8864C49.9547 32.2436 49.7878 31.7429 49.454 31.3842C49.1202 31.022 48.6621 30.8409 48.0797 30.8409C47.6784 30.8409 47.3198 30.9279 47.0037 31.1019C46.6912 31.2759 46.4444 31.5298 46.2633 31.8636C46.0822 32.1974 45.9917 32.6023 45.9917 33.0781Z" fill="white"/>
</svg>
