<svg width="47" height="47" viewBox="0 0 47 47" fill="none" xmlns="http://www.w3.org/2000/svg">
<path d="M32.4692 3.91667H14.5112C11.6996 3.92186 9.00486 5.0424 7.01855 7.03238C5.03224 9.02236 3.91665 11.7192 3.91666 14.5309V32.4887C3.92183 35.297 5.03971 37.9888 7.02545 39.9746C9.0112 41.9603 11.703 43.0782 14.5112 43.0833H32.4692C35.2808 43.0833 37.9776 41.9677 39.9676 39.9814C41.9576 37.9951 43.0781 35.3004 43.0833 32.4887V14.5309C43.0833 11.7158 41.9651 9.01605 39.9745 7.02551C37.984 5.03497 35.2842 3.91667 32.4692 3.91667ZM32.8608 30.9808C32.8253 31.9957 32.397 32.957 31.6663 33.6621C30.9356 34.3673 29.9596 34.761 28.9442 34.7604H18.1733C17.1579 34.761 16.1819 34.3673 15.4512 33.6621C14.7205 32.957 14.2922 31.9957 14.2567 30.9808V23.5C14.2896 22.6297 14.6118 21.7951 15.1721 21.1283C15.7325 20.4616 16.4991 20.0006 17.3508 19.8183V18.5258C17.357 16.8598 18.0182 15.2631 19.1917 14.0804C20.3866 12.9396 21.9752 12.303 23.6273 12.303C25.2794 12.303 26.868 12.9396 28.0629 14.0804C28.6492 14.6623 29.114 15.355 29.43 16.1182C29.746 16.8814 29.9071 17.6998 29.9037 18.5258V19.8183C30.7554 20.0006 31.5221 20.4616 32.0824 21.1283C32.6428 21.7951 32.9649 22.6297 32.9979 23.5L32.8608 30.9808Z" fill="white"/>
<path d="M27.1819 18.5261V19.7207H19.799V18.5261C19.7986 18.0425 19.8936 17.5636 20.0784 17.1167C20.2632 16.6698 20.5342 16.2637 20.876 15.9216C21.5773 15.2432 22.5147 14.8639 23.4904 14.8639C24.4661 14.8639 25.4036 15.2432 26.1048 15.9216C26.4466 16.2637 26.7176 16.6698 26.9024 17.1167C27.0872 17.5636 27.1822 18.0425 27.1819 18.5261Z" fill="white"/>
</svg>
