<svg width="92" height="26" viewBox="0 0 92 26" fill="none" xmlns="http://www.w3.org/2000/svg">
<path d="M58.2398 12.6474C58.2398 19.0348 53.6283 24.3153 47.638 25.1725C47.0777 25.2526 46.5047 25.2941 45.9231 25.2941C45.2514 25.2941 44.5926 25.2388 43.95 25.1324C38.086 24.1631 33.6064 18.9416 33.6064 12.6467C33.6064 5.6621 39.1208 0 45.9231 0C52.7254 0 58.2398 5.6621 58.2398 12.6467V12.6474Z" fill="white"/>
<path d="M49.7799 5.05542H42.0655C39.9342 5.05542 38.2009 6.83525 38.2009 9.02362V16.2704C38.2009 18.4588 39.9342 20.2386 42.0655 20.2386H49.7799C51.9112 20.2386 53.6446 18.4588 53.6446 16.2704V9.02362C53.6446 6.83525 51.9112 5.05542 49.7799 5.05542ZM39.564 9.02362C39.564 7.60719 40.686 6.45511 42.0655 6.45511H49.7799C51.1594 6.45511 52.2814 7.60719 52.2814 9.02362V16.2704C52.2814 17.6868 51.1594 18.8389 49.7799 18.8389H42.0655C40.686 18.8389 39.564 17.6868 39.564 16.2704V9.02362Z" fill="black"/>
<path d="M45.9224 16.3389C47.9047 16.3389 49.5175 14.6828 49.5175 12.6474C49.5175 10.612 47.9047 8.95593 45.9224 8.95593C43.9401 8.95593 42.3272 10.612 42.3272 12.6474C42.3272 14.6828 43.9401 16.3389 45.9224 16.3389ZM45.9224 10.3563C47.1529 10.3563 48.1537 11.3839 48.1537 12.6474C48.1537 13.9109 47.1529 14.9385 45.9224 14.9385C44.6919 14.9385 43.6911 13.9109 43.6911 12.6474C43.6911 11.3839 44.6919 10.3563 45.9224 10.3563Z" fill="black"/>
<path d="M49.8509 9.55157C50.385 9.55157 50.8197 9.10516 50.8197 8.55679C50.8197 8.00843 50.385 7.56201 49.8509 7.56201C49.3168 7.56201 48.8821 8.00843 48.8821 8.55679C48.8821 9.10516 49.3168 9.55157 49.8509 9.55157Z" fill="black"/>
<path d="M91.8462 12.6474C91.8462 19.0348 87.2347 24.3153 81.2444 25.1725C80.6841 25.2526 80.1111 25.2941 79.5295 25.2941C78.8578 25.2941 78.199 25.2388 77.5564 25.1324C71.6924 24.1631 67.2128 18.9416 67.2128 12.6467C67.2128 5.6621 72.7272 0 79.5295 0C86.3318 0 91.8462 5.6621 91.8462 12.6467V12.6474Z" fill="white"/>
<path d="M78.5649 13.1287C78.3486 12.8498 78.1004 12.6365 77.8223 12.4915C78.0684 12.3386 78.2791 12.1493 78.4535 11.9257C78.7479 11.5477 78.8975 11.0729 78.8975 10.5143C78.8975 10.049 78.7777 9.62152 78.5408 9.24283C78.3046 8.8656 77.9535 8.56192 77.4975 8.34127C77.05 8.12498 76.5116 8.01501 75.8967 8.01501H72.4037V17.2768H76.057C76.6556 17.2768 77.1897 17.1647 77.645 16.9447C78.1089 16.7204 78.4706 16.4066 78.7188 16.0126C78.9677 15.6172 79.094 15.1678 79.094 14.677C79.094 14.1024 78.916 13.581 78.5642 13.1273L78.5649 13.1287ZM76.7095 11.4414C76.4932 11.6213 76.179 11.7123 75.774 11.7123H74.2634V9.66012H75.774C76.1769 9.66012 76.4904 9.75479 76.706 9.94049C76.9124 10.1189 77.0131 10.3651 77.0131 10.692C77.0131 11.019 76.9138 11.271 76.7088 11.4414H76.7095ZM74.2634 13.3552H75.8854C76.3102 13.3552 76.6365 13.4608 76.884 13.6786C77.1209 13.8868 77.2358 14.1643 77.2358 14.527C77.2358 14.8896 77.1287 15.1453 76.9095 15.3361C76.6819 15.5349 76.3542 15.6354 75.935 15.6354H74.2641V13.3552H74.2634Z" fill="black"/>
<path d="M86.2311 11.5806C85.9495 11.0584 85.5516 10.647 85.0467 10.3586C84.5424 10.0702 83.9601 9.92383 83.3168 9.92383C82.6735 9.92383 82.048 10.0746 81.5317 10.371C81.0146 10.6681 80.6082 11.097 80.3224 11.6439C80.0373 12.1909 79.8933 12.8332 79.8933 13.5527C79.8933 14.2722 80.0422 14.9145 80.3352 15.4614C80.6288 16.009 81.0394 16.4394 81.5558 16.7402C82.0721 17.0417 82.6643 17.1939 83.3168 17.1939C84.1176 17.1939 84.7984 16.9849 85.3403 16.5734C85.8814 16.1612 86.2609 15.626 86.468 14.9808L86.4829 14.9349H84.8984L84.8892 14.9545C84.5842 15.5881 84.0559 15.9093 83.3175 15.9093C82.8026 15.9093 82.3629 15.7418 82.009 15.4119C81.6636 15.09 81.4657 14.6596 81.4189 14.1309H86.5999L86.6042 14.101C86.6375 13.8884 86.6538 13.6481 86.6538 13.3866C86.6538 12.7086 86.5113 12.1005 86.2304 11.5791L86.2311 11.5806ZM82.0331 11.6745C82.37 11.3658 82.7813 11.2092 83.2551 11.2092C83.7778 11.2092 84.2225 11.3679 84.5764 11.6818C84.9204 11.9869 85.1027 12.3962 85.1183 12.8987H81.4331C81.5026 12.3882 81.704 11.9767 82.0331 11.6753V11.6745Z" fill="black"/>
<path d="M84.9991 8.23059H81.548V9.07025H84.9991V8.23059Z" fill="black"/>
<path d="M24.6334 12.6474C24.6334 19.0348 20.0219 24.3153 14.0317 25.1725C13.4714 25.2526 12.8983 25.2941 12.3167 25.2941C11.6451 25.2941 10.9862 25.2388 10.3436 25.1324C4.47958 24.1631 0 18.9416 0 12.6467C0 5.6621 5.51437 0 12.3167 0C19.1191 0 24.6334 5.6621 24.6334 12.6467V12.6474Z" fill="white"/>
<path d="M14.0317 10.1547V12.9096H17.3509L16.8254 16.6215H14.0317V25.1725C13.4714 25.2526 12.8983 25.2941 12.3167 25.2941C11.6451 25.2941 10.9862 25.2388 10.3436 25.1325V16.6215H7.28251V12.9096H10.3436V9.53931C10.3436 7.44779 11.9947 5.75171 14.0324 5.75171V5.75389C14.038 5.75389 14.0437 5.75171 14.0494 5.75171H17.3516V8.96108H15.1941C14.5522 8.96108 14.0324 9.49488 14.0324 10.1539L14.0317 10.1547Z" fill="black"/>
</svg>
